<svg width="28" height="28" viewBox="0 0 28 28" fill="none" xmlns="http://www.w3.org/2000/svg">
<path d="M4.30954 9.51143L3.86312 8.90876L4.30954 9.51143ZM2.75 11.1185V23.6666H4.25V11.1185H2.75ZM5.5 26.4166H22.5V24.9166H5.5V26.4166ZM25.25 23.6666V11.1185H23.75V23.6666H25.25ZM24.1369 8.90876L15.6369 2.61246L14.744 3.8178L23.244 10.1141L24.1369 8.90876ZM12.3631 2.61246L3.86312 8.90876L4.75597 10.1141L13.256 3.8178L12.3631 2.61246ZM15.6369 2.61246C14.6645 1.89217 13.3355 1.89217 12.3631 2.61246L13.256 3.8178C13.698 3.4904 14.302 3.4904 14.744 3.8178L15.6369 2.61246ZM25.25 11.1185C25.25 10.2472 24.8371 9.42741 24.1369 8.90876L23.244 10.1141C23.5623 10.3498 23.75 10.7225 23.75 11.1185H25.25ZM22.5 26.4166C24.0188 26.4166 25.25 25.1854 25.25 23.6666H23.75C23.75 24.357 23.1904 24.9166 22.5 24.9166V26.4166ZM2.75 23.6666C2.75 25.1854 3.98122 26.4166 5.5 26.4166V24.9166C4.80964 24.9166 4.25 24.357 4.25 23.6666H2.75ZM4.25 11.1185C4.25 10.7225 4.4377 10.3498 4.75597 10.1141L3.86312 8.90876C3.16295 9.42741 2.75 10.2472 2.75 11.1185H4.25Z" fill="#C6C6C6"/>
<path d="M9.1665 25.6667C9.1665 26.0809 9.50229 26.4167 9.9165 26.4167C10.3307 26.4167 10.6665 26.0809 10.6665 25.6667H9.1665ZM17.3332 25.6667C17.3332 26.0809 17.669 26.4167 18.0832 26.4167C18.4974 26.4167 18.8332 26.0809 18.8332 25.6667H17.3332ZM10.6665 25.6667V17.25H9.1665V25.6667H10.6665ZM11.4165 16.5H16.5832V15H11.4165V16.5ZM17.3332 17.25V25.6667H18.8332V17.25H17.3332ZM16.5832 16.5C16.9974 16.5 17.3332 16.8358 17.3332 17.25H18.8332C18.8332 16.0074 17.8258 15 16.5832 15V16.5ZM10.6665 17.25C10.6665 16.8358 11.0023 16.5 11.4165 16.5V15C10.1739 15 9.1665 16.0074 9.1665 17.25H10.6665Z" fill="#C6C6C6"/>
</svg>
