<svg width="28" height="26" viewBox="0 0 28 26" fill="none" xmlns="http://www.w3.org/2000/svg">
<path fill-rule="evenodd" clip-rule="evenodd" d="M9.98556 0.494554C10.243 0.411435 10.5239 0.443615 10.7559 0.582822L13.4963 2.22707C13.8322 2.21206 14.1686 2.21207 14.5045 2.2271L17.2336 0.593982C17.4637 0.456287 17.7417 0.423712 17.9974 0.504493C19.7883 1.0703 21.4348 2.01856 22.823 3.28364C23.022 3.46499 23.1334 3.72315 23.1289 3.99235L23.0753 7.17778C23.2603 7.46196 23.4301 7.75578 23.584 8.058L26.3619 9.6025C26.5958 9.73256 26.763 9.95638 26.8213 10.2176C27.2301 12.0482 27.2344 13.9459 26.834 15.7783C26.7764 16.0417 26.6082 16.2676 26.3723 16.3982L23.5836 17.9428C23.4298 18.2447 23.2602 18.5383 23.0753 18.8222L23.1289 22.0077C23.1334 22.2769 23.022 22.535 22.823 22.7164C21.4377 23.9787 19.7982 24.9297 18.0147 25.5055C17.7572 25.5886 17.4764 25.5564 17.2443 25.4172L14.5039 23.7729C14.168 23.7879 13.8316 23.7879 13.4957 23.7729L10.7667 25.406C10.5366 25.5437 10.2585 25.5763 10.0029 25.4955C8.21196 24.9297 6.56542 23.9814 5.17724 22.7164C4.97823 22.535 4.86681 22.2768 4.87135 22.0076L4.92504 18.8294C4.74107 18.5423 4.57145 18.2462 4.41678 17.9423L1.63832 16.3975C1.4044 16.2674 1.23722 16.0436 1.1789 15.7824C0.770193 13.9519 0.76588 12.0542 1.16627 10.2218C1.22383 9.95831 1.39204 9.73241 1.62794 9.60176L4.41667 8.05723C4.5704 7.75528 4.74008 7.46171 4.92498 7.17777L4.87135 3.99235C4.86682 3.72313 4.97825 3.46497 5.17727 3.28362C6.56253 2.0213 8.20205 1.07029 9.98556 0.494554ZM6.75339 4.39454L6.80468 7.44125C6.808 7.63863 6.74893 7.83203 6.63589 7.99387C6.38443 8.35388 6.16428 8.73477 5.97786 9.13237C5.89405 9.31112 5.75595 9.45884 5.58325 9.55449L2.91669 11.0314C2.68345 12.3336 2.68669 13.6672 2.92626 14.9683L5.58459 16.4463C5.75598 16.5415 5.89318 16.6882 5.97687 16.8655C6.16739 17.2693 6.3896 17.6572 6.64142 18.0259C6.75091 18.1861 6.80796 18.3764 6.80468 18.5705L6.75342 21.6054C7.76674 22.4614 8.92552 23.1286 10.1746 23.5753L12.7804 22.0159C12.9455 21.9171 13.1369 21.8715 13.3287 21.8852C13.7758 21.9172 14.2245 21.9172 14.6715 21.8852C14.8637 21.8715 15.0555 21.9173 15.2207 22.0164L17.835 23.585C19.08 23.1312 20.235 22.4611 21.2469 21.6055L21.1956 18.5588C21.1922 18.3614 21.2513 18.168 21.3644 18.0061C21.6158 17.6461 21.836 17.2652 22.0224 16.8676C22.1062 16.6889 22.2443 16.5412 22.417 16.4455L25.0836 14.9686C25.3168 13.6664 25.3136 12.3328 25.074 11.0317L22.4157 9.55375C22.2436 9.45807 22.106 9.31064 22.0224 9.13237C21.836 8.73477 21.6158 8.35388 21.3644 7.99387C21.2513 7.83203 21.1922 7.63863 21.1956 7.44125L21.2469 4.39466C20.2335 3.53863 19.0747 2.87139 17.8257 2.42473L15.2198 3.98415C15.0548 4.08291 14.8634 4.12852 14.6715 4.1148C14.2245 4.08283 13.7758 4.08283 13.3287 4.1148C13.1365 4.12855 12.9447 4.08273 12.7795 3.98359L10.1652 2.41503C8.92027 2.86877 7.7652 3.53892 6.75339 4.39454ZM14.0001 8.3125C11.4113 8.3125 9.31263 10.4112 9.31263 13C9.31263 15.5888 11.4113 17.6875 14.0001 17.6875C16.589 17.6875 18.6876 15.5888 18.6876 13C18.6876 10.4112 16.589 8.3125 14.0001 8.3125ZM7.43763 13C7.43763 9.37563 10.3758 6.4375 14.0001 6.4375C17.6245 6.4375 20.5626 9.37563 20.5626 13C20.5626 16.6244 17.6245 19.5625 14.0001 19.5625C10.3758 19.5625 7.43763 16.6244 7.43763 13Z" fill="#0F0F0F"/>
</svg>
