<svg width="30" height="30" viewBox="0 0 30 30" fill="none" xmlns="http://www.w3.org/2000/svg">
<path fill-rule="evenodd" clip-rule="evenodd" d="M21.8371 3.08709C22.2032 2.72097 22.7968 2.72097 23.1629 3.08709L26.9129 6.83709C27.279 7.2032 27.279 7.7968 26.9129 8.16291L15.6629 19.4129C15.4871 19.5887 15.2486 19.6875 15 19.6875H11.25C10.7322 19.6875 10.3125 19.2678 10.3125 18.75V15C10.3125 14.7514 10.4113 14.5129 10.5871 14.3371L21.8371 3.08709ZM12.1875 15.3883V17.8125H14.6117L24.9242 7.5L22.5 5.07582L12.1875 15.3883Z" fill="#64BE78"/>
<path fill-rule="evenodd" clip-rule="evenodd" d="M19.0246 5.89959C19.3907 5.53347 19.9843 5.53347 20.3504 5.89959L24.1004 9.64959C24.4665 10.0157 24.4665 10.6093 24.1004 10.9754C23.7343 11.3415 23.1407 11.3415 22.7746 10.9754L19.0246 7.22541C18.6585 6.8593 18.6585 6.2657 19.0246 5.89959Z" fill="#64BE78"/>
<path fill-rule="evenodd" clip-rule="evenodd" d="M4.29917 4.29918C4.65081 3.94754 5.12772 3.75 5.625 3.75H15.9375C16.4553 3.75 16.875 4.16973 16.875 4.6875C16.875 5.20527 16.4553 5.625 15.9375 5.625L5.625 5.625L5.625 24.375H24.375V14.0625C24.375 13.5447 24.7947 13.125 25.3125 13.125C25.8303 13.125 26.25 13.5447 26.25 14.0625V24.375C26.25 24.8723 26.0525 25.3492 25.7008 25.7008C25.3492 26.0525 24.8723 26.25 24.375 26.25H5.625C5.12772 26.25 4.65081 26.0525 4.29917 25.7008C3.94754 25.3492 3.75 24.8723 3.75 24.375V5.625C3.75 5.12772 3.94754 4.65081 4.29917 4.29918Z" fill="#64BE78"/>
</svg>
