<svg width="30" height="30" viewBox="0 0 30 30" fill="none" xmlns="http://www.w3.org/2000/svg">
<path fill-rule="evenodd" clip-rule="evenodd" d="M19.4129 10.5872C19.779 10.9533 19.779 11.5469 19.4129 11.913L5.35041 25.9755C4.9843 26.3416 4.3907 26.3416 4.02459 25.9755C3.65847 25.6094 3.65847 25.0158 4.02459 24.6497L18.0871 10.5872C18.4532 10.221 19.0468 10.221 19.4129 10.5872Z" fill="#64BE78"/>
<path fill-rule="evenodd" clip-rule="evenodd" d="M8.18464 21.8154C12.484 24.3038 16.6238 23.7968 19.6346 20.9936C22.643 18.1927 24.6835 12.9472 24.4166 5.58344C17.0528 5.31658 11.8073 7.35712 9.00644 10.3655C6.20329 13.3763 5.69623 17.516 8.18464 21.8154ZM7.63414 9.08782C11.0559 5.41258 17.2362 3.27339 25.3675 3.75171C25.842 3.77961 26.2205 4.15811 26.2484 4.63254C26.7267 12.7639 24.5875 18.9442 20.9122 22.3659C17.1734 25.847 12.021 26.306 7.01764 23.304C6.88569 23.2248 6.77525 23.1144 6.69608 22.9824C3.69407 17.9791 4.15311 12.8267 7.63414 9.08782Z" fill="#64BE78"/>
</svg>
