<svg width="40" height="40" viewBox="0 0 40 40" fill="none" xmlns="http://www.w3.org/2000/svg">
<circle cx="20" cy="20" r="20" fill="#FEE500"/>
<path fill-rule="evenodd" clip-rule="evenodd" d="M20.0007 12C15.0293 12 11 14.9645 11 18.6213C11 20.8958 12.5586 22.9003 14.9318 24.0925L13.9317 27.5659C13.9135 27.6345 13.9177 27.7067 13.9437 27.7729C13.9697 27.8392 14.0164 27.8964 14.0775 27.9369C14.1386 27.9775 14.2113 27.9995 14.2859 28C14.3605 28.0005 14.4336 27.9795 14.4953 27.9398L18.8726 25.189C19.2417 25.2227 19.6172 25.2426 19.9993 25.2426C24.9702 25.2426 29 22.2776 29 18.6213C29 14.965 24.9702 12 19.9993 12" fill="black" fill-opacity="0.9"/>
</svg>
