<svg width="30" height="30" viewBox="0 0 30 30" fill="none" xmlns="http://www.w3.org/2000/svg">
<path fill-rule="evenodd" clip-rule="evenodd" d="M13.9043 2.21323C14.2254 1.98832 14.608 1.86768 15 1.86768C15.3921 1.86768 15.7747 1.98832 16.0958 2.21323C16.4126 2.43509 16.6545 2.74781 16.7896 3.10991L19.3635 9.59152L19.3712 9.61155C19.3736 9.61795 19.3778 9.62353 19.3833 9.62759C19.3888 9.63165 19.3953 9.63403 19.4021 9.63442L19.4079 9.63476L26.322 10.0801C28.1168 10.1966 28.7302 12.4434 27.424 13.5292L27.4232 13.5298L22.1279 17.9465L22.1248 17.9491C22.1129 17.9589 22.104 17.972 22.0991 17.9866C22.0944 18.0009 22.0938 18.0162 22.0972 18.0309L22.0974 18.0321L23.807 24.7533C24.221 26.3873 22.4566 27.8588 20.9218 26.8906L20.9194 26.8891L15.0131 23.1391C15.0094 23.1367 15.0045 23.1351 15 23.1351C14.9956 23.1351 14.9912 23.1364 14.9875 23.1388L14.986 23.1397L9.49163 26.6191L9.49077 26.6196C7.80703 27.6901 5.86232 26.0626 6.32197 24.261L7.90262 18.0321L7.90288 18.031C7.90632 18.0163 7.90564 18.001 7.90092 17.9866C7.89608 17.972 7.88719 17.9589 7.87528 17.9491L7.8722 17.9465L2.57684 13.5298L2.57609 13.5292C1.26988 12.4433 1.88277 10.1967 3.67756 10.0801L10.5979 9.6344C10.6047 9.63401 10.6113 9.63165 10.6168 9.62759C10.6223 9.62353 10.6265 9.61795 10.6288 9.61155L10.6365 9.59152L13.2105 3.10991C13.3456 2.74781 13.5875 2.43509 13.9043 2.21323ZM16.0187 21.5566L21.9221 25.3047C21.9328 25.3114 21.9398 25.314 21.9416 25.3146C21.9441 25.3141 21.9522 25.3119 21.9634 25.3034C21.9776 25.2927 21.9866 25.2792 21.9907 25.2683C21.9926 25.2633 21.9938 25.258 21.9942 25.2513C21.9946 25.245 21.9944 25.2332 21.9897 25.2148L20.2776 18.4836C20.1888 18.1257 20.2029 17.75 20.3184 17.3998C20.4335 17.0503 20.6449 16.7403 20.9283 16.5055L20.93 16.5041L26.2253 12.0874C26.2363 12.0783 26.2409 12.0718 26.2429 12.0686C26.245 12.0652 26.2469 12.0612 26.2484 12.0556C26.2517 12.043 26.2529 12.0212 26.2451 11.996C26.2373 11.9709 26.2258 11.9587 26.2224 11.9558L26.2205 11.9545C26.2205 11.9545 26.215 11.9521 26.2013 11.9512L19.2932 11.5063L19.2899 11.5061C18.9206 11.4839 18.5657 11.355 18.2682 11.135C17.9732 10.9168 17.7474 10.6183 17.6176 10.2753L15.0428 3.79135C15.0394 3.78289 15.0362 3.77437 15.0331 3.76581C15.0306 3.75904 15.0261 3.75318 15.0202 3.74904C15.0143 3.7449 15.0072 3.74268 15 3.74268C14.9928 3.74268 14.9858 3.7449 14.9799 3.74904C14.974 3.75318 14.9695 3.75903 14.967 3.76581C14.9639 3.77437 14.9606 3.78289 14.9573 3.79135L12.3824 10.2753C12.2527 10.6183 12.0268 10.9168 11.7319 11.135C11.4344 11.355 11.0795 11.4839 10.7102 11.5061L3.79906 11.9512C3.78541 11.9521 3.77967 11.9545 3.77967 11.9545L3.77769 11.9558C3.77429 11.9587 3.76276 11.9709 3.75499 11.996C3.74719 12.0212 3.74836 12.043 3.75169 12.0556C3.75315 12.0612 3.75502 12.0652 3.7572 12.0686C3.75918 12.0718 3.76381 12.0783 3.77478 12.0874L3.7763 12.0887L9.0701 16.5041L9.07193 16.5056C9.3552 16.7404 9.56655 17.0503 9.68171 17.3998C9.79713 17.75 9.81125 18.1257 9.72244 18.4836L9.72123 18.4884L8.13881 24.7243C8.10494 24.8569 8.15166 24.9596 8.2373 25.0247C8.28112 25.058 8.32539 25.0723 8.36038 25.0748C8.38931 25.0768 8.42937 25.0726 8.48499 25.0372L13.9814 21.5566L13.9828 21.5556C14.287 21.3626 14.6398 21.2601 15 21.2601C15.3606 21.2601 15.7143 21.3632 16.0187 21.5566Z" fill="#64BE78"/>
</svg>
