<svg width="19" height="19" viewBox="0 0 19 19" fill="none" xmlns="http://www.w3.org/2000/svg">
<path d="M18.1322 5.30992L14.1101 1.28868C13.8368 1.01898 13.4727 0.869747 13.0906 0.875141C12.7068 0.877838 12.3463 1.03067 12.0802 1.30037L1.29124 12.0902C1.15099 12.2313 1.04491 12.3958 0.974789 12.5747C0.9649 12.5981 0.956809 12.6215 0.949617 12.6449C0.901071 12.7896 0.875 12.9433 0.875 13.1007V17.1192C0.875 17.9121 1.52048 18.5576 2.3134 18.5576H6.33463C6.48387 18.5576 6.6322 18.5324 6.77245 18.4866C6.80751 18.4767 6.84257 18.465 6.87583 18.4497C7.04934 18.3787 7.20936 18.2735 7.34331 18.1405L18.143 7.33986C18.6995 6.77439 18.6923 5.8619 18.1313 5.30992H18.1322ZM2.61187 12.804L10.2273 5.19305L11.7241 6.68988L4.1114 14.3035L2.61187 12.804ZM2.3116 14.5373L4.89264 17.1183H2.3134L2.31071 14.5373H2.3116ZM6.62951 16.8207L5.12907 15.3203L12.7427 7.70665L14.2431 9.20709L6.62951 16.8207ZM15.2599 8.19032L11.2459 4.17627L13.1059 2.31714L17.1155 6.33478L15.2599 8.19032Z" fill="black"/>
</svg>
