<svg width="36" height="36" viewBox="0 0 36 36" fill="none" xmlns="http://www.w3.org/2000/svg">
<circle cx="18" cy="18" r="18" fill="#77C688"/>
<path fill-rule="evenodd" clip-rule="evenodd" d="M14.376 9.33397C14.5151 9.12533 14.7492 9 15 9H21C21.2508 9 21.4849 9.12533 21.624 9.33397L22.9014 11.25H25.5C26.0967 11.25 26.669 11.4871 27.091 11.909C27.5129 12.331 27.75 12.9033 27.75 13.5V24C27.75 24.5967 27.5129 25.169 27.091 25.591C26.669 26.0129 26.0967 26.25 25.5 26.25H10.5C9.90326 26.25 9.33097 26.0129 8.90901 25.591C8.48705 25.169 8.25 24.5967 8.25 24V13.5C8.25 12.9033 8.48705 12.331 8.90901 11.909C9.33097 11.4871 9.90326 11.25 10.5 11.25H13.0986L14.376 9.33397ZM15.4014 10.5L14.124 12.416C13.9849 12.6247 13.7508 12.75 13.5 12.75H10.5C10.3011 12.75 10.1103 12.829 9.96967 12.9697C9.82902 13.1103 9.75 13.3011 9.75 13.5V24C9.75 24.1989 9.82902 24.3897 9.96967 24.5303C10.1103 24.671 10.3011 24.75 10.5 24.75H25.5C25.6989 24.75 25.8897 24.671 26.0303 24.5303C26.171 24.3897 26.25 24.1989 26.25 24V13.5C26.25 13.3011 26.171 13.1103 26.0303 12.9697C25.8897 12.829 25.6989 12.75 25.5 12.75H22.5C22.2492 12.75 22.0151 12.6247 21.876 12.416L20.5986 10.5H15.4014Z" fill="white"/>
<path fill-rule="evenodd" clip-rule="evenodd" d="M18 15.75C16.5503 15.75 15.375 16.9253 15.375 18.375C15.375 19.8247 16.5503 21 18 21C19.4497 21 20.625 19.8247 20.625 18.375C20.625 16.9253 19.4497 15.75 18 15.75ZM13.875 18.375C13.875 16.0968 15.7218 14.25 18 14.25C20.2782 14.25 22.125 16.0968 22.125 18.375C22.125 20.6532 20.2782 22.5 18 22.5C15.7218 22.5 13.875 20.6532 13.875 18.375Z" fill="white"/>
</svg>
