<svg width="28" height="28" viewBox="0 0 28 28" fill="none" xmlns="http://www.w3.org/2000/svg">
<path d="M7.34998 19.8334L7.34998 25.4167C7.34998 25.5548 7.4619 25.6667 7.59998 25.6667L11.7666 25.6667C11.9047 25.6667 12.0166 25.5548 12.0166 25.4167L12.0166 19.8334" stroke="#C6C6C6" stroke-width="1.5" stroke-linecap="round"/>
<path d="M8.51668 19.8334L2.94229 19.8334C2.73316 19.8334 2.6106 19.5644 2.73053 19.3687L6.06474 13.9268L2.94228 13.9268C2.73316 13.9268 2.6106 13.6579 2.73053 13.4621L9.4719 2.45934C9.57481 2.29138 9.79252 2.29139 9.89541 2.45935L16.6362 13.4621C16.7561 13.6579 16.6335 13.9268 16.4244 13.9268L13.3023 13.9268L16.6362 19.3687C16.7561 19.5644 16.6335 19.8334 16.4244 19.8334L10.85 19.8334" stroke="#C6C6C6" stroke-width="1.5" stroke-linecap="round"/>
<path d="M21.1166 19.25L21.1166 24.25C21.1166 24.3881 21.0047 24.5 20.8666 24.5L17.1666 24.5C17.0286 24.5 16.9166 24.3881 16.9166 24.25L16.9166 21.875" stroke="#C6C6C6" stroke-width="1.5" stroke-linecap="round"/>
<path d="M19.0164 19.25L25.0841 19.25C25.2723 19.25 25.3826 19.0079 25.2747 18.8318L22.2742 13.9341L25.0841 13.9341C25.2723 13.9341 25.3826 13.692 25.2747 13.5159L19.208 3.61338C19.1154 3.46221 18.9194 3.46221 18.8268 3.61337L15.7932 8.56462" stroke="#C6C6C6" stroke-width="1.5" stroke-linecap="round"/>
</svg>
