<svg width="117" height="117" viewBox="0 0 117 117" fill="none" xmlns="http://www.w3.org/2000/svg">
<circle cx="58.5" cy="58.5" r="57.75" stroke="#77C688" stroke-width="1.5"/>
<g clip-path="url(#clip0_1321_2441)">
<path d="M72 62.8787C72 62.7087 71.9573 62.5599 71.9573 62.4111V54.9513C71.9573 52.6559 70.1019 50.8069 67.7986 50.8069H65.218C62.9147 50.8069 61.0592 52.6559 61.0592 54.9513V57.7992H55.237V35.1008C55.237 32.2741 52.955 30 50.1185 30C47.282 30 45 32.2741 45 35.1008V62.8787C45 65.7054 47.282 67.9795 50.1185 67.9795H61.0592V83.8556C61.0592 86.151 62.9147 88 65.218 88H67.7986C70.1019 88 71.9573 86.151 71.9573 83.8556V63.3463C71.9573 63.1975 72 63.0275 72 62.8787Z" fill="#64BE78"/>
<path opacity="0.8" d="M70.9824 38.5431L71.7725 41.0804C72.5816 43.6786 71.1269 46.465 68.4993 47.2775L63.6515 48.7767L62.8614 46.2394C62.0524 43.6412 63.5071 40.8548 66.1346 40.0422L70.9824 38.5431Z" fill="#64BE78"/>
</g>
<defs>
<clipPath id="clip0_1321_2441">
<rect width="27" height="58" fill="white" transform="translate(45 30)"/>
</clipPath>
</defs>
</svg>
