<svg width="30" height="30" viewBox="0 0 30 30" fill="none" xmlns="http://www.w3.org/2000/svg">
<path d="M24.375 2.8125H8.42578C6.37148 2.8125 4.6957 4.47891 4.6875 6.53203V25.2867C4.6875 25.2949 4.6875 25.3043 4.6875 25.3125V26.25C4.6875 26.768 5.10703 27.1875 5.625 27.1875H22.5C23.018 27.1875 23.4375 26.768 23.4375 26.25C23.4375 25.732 23.018 25.3125 22.5 25.3125H6.5625V25.2914C6.56719 24.2719 7.39687 23.4422 8.41406 23.4375H24.375C24.893 23.4375 25.3125 23.018 25.3125 22.5V3.75C25.3125 3.23203 24.893 2.8125 24.375 2.8125ZM14.0625 4.6875H19.6875V13.125L17.4375 11.4375C17.1047 11.1879 16.6453 11.1879 16.3125 11.4375L14.0625 13.125V4.6875ZM23.4375 21.5625H8.41055C7.73789 21.5648 7.10742 21.7465 6.5625 22.0605V6.54258C6.56484 6.04453 6.76055 5.57812 7.11328 5.22773C7.46484 4.87969 7.93008 4.6875 8.4293 4.6875H12.1875V15C12.1875 15.3551 12.3879 15.6797 12.7055 15.8391C13.023 15.9984 13.4027 15.9633 13.6875 15.7512L16.875 13.3605L20.0625 15.7512C20.2277 15.8754 20.4258 15.9387 20.625 15.9387C20.768 15.9387 20.9109 15.9059 21.0445 15.8402C21.3621 15.6809 21.5625 15.3574 21.5625 15.0012V4.6875H23.4375V21.5625Z" fill="#64BE78"/>
</svg>
