<svg width="27" height="58" viewBox="0 0 27 58" fill="none" xmlns="http://www.w3.org/2000/svg">
<path d="M27 32.8787C27 32.7087 26.9573 32.5599 26.9573 32.4111V24.9513C26.9573 22.6559 25.1019 20.8069 22.7986 20.8069H20.218C17.9147 20.8069 16.0592 22.6559 16.0592 24.9513V27.7992H10.237V5.10077C10.237 2.27409 7.95498 0 5.11848 0C2.28199 0 0 2.27409 0 5.10077V32.8787C0 35.7054 2.28199 37.9795 5.11848 37.9795H16.0592V53.8556C16.0592 56.151 17.9147 58 20.218 58H22.7986C25.1019 58 26.9573 56.151 26.9573 53.8556V33.3463C26.9573 33.1975 27 33.0275 27 32.8787Z" fill="#64BE78"/>
<path opacity="0.8" d="M25.9824 8.54297L26.7725 11.0803C27.5816 13.6784 26.1269 16.4649 23.4993 17.2774L18.6515 18.7766L17.8614 16.2393C17.0524 13.6411 18.5071 10.8547 21.1346 10.0421L25.9824 8.54297Z" fill="#64BE78"/>
</svg>
