<svg width="87" height="187" viewBox="0 0 87 187" fill="none" xmlns="http://www.w3.org/2000/svg">
<path d="M87 106.005C87 105.457 86.8626 104.978 86.8626 104.498V80.4463C86.8626 73.0458 80.8839 67.0843 73.4621 67.0843H65.1469C57.7251 67.0843 51.7464 73.0458 51.7464 80.4463V89.6284H32.9858V16.4456C32.9858 7.33199 25.6327 0 16.4929 0C7.35308 0 0 7.33199 0 16.4456V106.005C0 115.119 7.35308 122.451 16.4929 122.451H51.7464V173.638C51.7464 181.038 57.7251 187 65.1469 187H73.4621C80.8839 187 86.8626 181.038 86.8626 173.638V107.513C86.8626 107.033 87 106.485 87 106.005V106.005Z" fill="white"/>
<path opacity="0.8" d="M83.7212 27.5442L86.2671 35.7248C88.874 44.1017 84.1868 53.0855 75.7201 55.7053L60.0995 60.5387L57.5536 52.3581C54.9466 43.9812 59.6339 34.9974 68.1006 32.3776L83.7212 27.5442V27.5442Z" fill="white"/>
</svg>
