<svg width="20" height="21" viewBox="0 0 20 21" fill="none" xmlns="http://www.w3.org/2000/svg">
<path d="M5.5 6L5.5 5.5C5.5 3.01472 7.51472 0.999999 10 0.999999V0.999999C12.4853 0.999999 14.5 3.01472 14.5 5.5L14.5 6" stroke="#64BE78" stroke-width="2" stroke-linecap="round"/>
<path d="M20 8V18H18V8H20ZM0 18V8H2V18H0ZM3 5H17V7H3V5ZM3 19H17V21H3V19ZM0 8C0 6.34315 1.34315 5 3 5V7C2.44772 7 2 7.44772 2 8H0ZM2 18C2 18.5523 2.44772 19 3 19V21C1.34315 21 0 19.6569 0 18H2ZM20 18C20 19.6569 18.6569 21 17 21V19C17.5523 19 18 18.5523 18 18H20ZM18 8C18 7.44772 17.5523 7 17 7V5C18.6569 5 20 6.34315 20 8H18Z" fill="#64BE78"/>
<path d="M11.5 12C11.5 11.1716 10.8284 10.5 10 10.5C9.17157 10.5 8.5 11.1716 8.5 12C8.5 12.8284 9.17157 13.5 10 13.5C10.8284 13.5 11.5 12.8284 11.5 12Z" stroke="#64BE78" stroke-width="2"/>
<path d="M10 14L10 16" stroke="#64BE78" stroke-width="2" stroke-linecap="round" stroke-linejoin="round"/>
</svg>
